<svg viewBox="0 0 192 192" xmlns="http://www.w3.org/2000/svg">
  <rect width="192" height="192" fill="#0B1221"/>
  <defs>
    <filter id="neon192" x="-60%" y="-60%" width="220%" height="220%" color-interpolation-filters="sRGB">
      <feGaussianBlur in="SourceGraphic" stdDeviation="0.7" result="b0"/>
      <feGaussianBlur in="SourceGraphic" stdDeviation="2" result="b1"/>
      <feGaussianBlur in="SourceGraphic" stdDeviation="5" result="b2"/>
      <feGaussianBlur in="SourceGraphic" stdDeviation="11" result="b3"/>
      <feMerge>
        <feMergeNode in="b3"/>
        <feMergeNode in="b2"/>
        <feMergeNode in="b1"/>
        <feMergeNode in="b0"/>
        <feMergeNode in="SourceGraphic"/>
      </feMerge>
    </filter>
    <linearGradient id="glass192" x1="0.15" y1="0" x2="0.85" y2="1">
      <stop offset="0%" stop-color="#FFF" stop-opacity="0.16"/>
      <stop offset="30%" stop-color="#00F0FF" stop-opacity="0.10"/>
      <stop offset="65%" stop-color="#8B5CF6" stop-opacity="0.04"/>
      <stop offset="100%" stop-color="#FFF" stop-opacity="0.02"/>
    </linearGradient>
  </defs>
  <!-- Hexagonal shield backing (400px design scaled to 192px: scale=0.48) -->
  <g transform="scale(0.48)" opacity="0.18">
    <polygon points="200,16 366,108 366,292 200,384 34,292 34,108" fill="none" stroke="#00F0FF" stroke-width="1.5"/>
    <polygon points="200,40 340,120 340,280 200,360 60,280 60,120" fill="none" stroke="#00F0FF" stroke-width="0.8" opacity="0.5"/>
    <circle cx="200" cy="16" r="3" fill="#00F0FF" opacity="0.6"/>
    <circle cx="366" cy="108" r="3" fill="#00F0FF" opacity="0.6"/>
    <circle cx="366" cy="292" r="3" fill="#00F0FF" opacity="0.6"/>
    <circle cx="200" cy="384" r="3" fill="#00F0FF" opacity="0.6"/>
    <circle cx="34" cy="292" r="3" fill="#00F0FF" opacity="0.6"/>
    <circle cx="34" cy="108" r="3" fill="#00F0FF" opacity="0.6"/>
  </g>
  <!-- Trident glass body -->
  <g transform="scale(0.48)">
    <path d="M191,50 L200,36 L209,50 L212,172 L188,172 Z" fill="url(#glass192)" opacity="0.88"/>
    <path d="M107,78 L116,64 L125,78 L128,172 L104,172 Z" fill="#14B8A6" fill-opacity="0.12" opacity="0.88"/>
    <path d="M275,78 L284,64 L293,78 L296,172 L272,172 Z" fill="#8B5CF6" fill-opacity="0.12" opacity="0.88"/>
    <path d="M96,172 C96,166 102,162 108,162 L292,162 C298,162 304,166 304,172 L304,192 C304,198 298,202 292,202 L108,202 C102,202 96,198 96,192 Z" fill="url(#glass192)" opacity="0.88"/>
    <path d="M188,198 L212,198 L212,346 C212,352 206,358 200,358 C194,358 188,352 188,346 Z" fill="url(#glass192)" opacity="0.88"/>
  </g>
  <!-- Neon edge strokes -->
  <g filter="url(#neon192)" transform="scale(0.48)" opacity="0.95">
    <path d="M191,50 L200,36 L209,50 L212,172 L188,172 Z" stroke="#00F0FF" stroke-width="2.5" fill="none" stroke-linecap="round" stroke-linejoin="round"/>
    <path d="M107,78 L116,64 L125,78 L128,172 L104,172 Z" stroke="#00F0FF" stroke-width="2.5" fill="none" stroke-linecap="round" stroke-linejoin="round"/>
    <path d="M275,78 L284,64 L293,78 L296,172 L272,172 Z" stroke="#00F0FF" stroke-width="2.5" fill="none" stroke-linecap="round" stroke-linejoin="round"/>
    <path d="M96,172 C96,166 102,162 108,162 L292,162 C298,162 304,166 304,172 L304,192 C304,198 298,202 292,202 L108,202 C102,202 96,198 96,192 Z" stroke="#00F0FF" stroke-width="2.5" fill="none" stroke-linecap="round" stroke-linejoin="round"/>
    <path d="M188,198 L212,198 L212,346 C212,352 206,358 200,358 C194,358 188,352 188,346 Z" stroke="#00F0FF" stroke-width="2.5" fill="none" stroke-linecap="round" stroke-linejoin="round"/>
  </g>
  <!-- Junction energy dots -->
  <g transform="scale(0.48)" fill="#00F0FF" opacity="0.4">
    <circle cx="116" cy="172" r="4"/>
    <circle cx="200" cy="172" r="5"/>
    <circle cx="284" cy="172" r="4"/>
    <circle cx="200" cy="358" r="5" opacity="0.8"/>
  </g>
</svg>
